<?xml version="1.0" encoding="UTF-8"?>
<svg id="Capa_1" width='50' height='50' xmlns="http://www.w3.org/2000/svg" version="1.1" viewBox="0 0 64 64">
  <!-- Generator: Adobe Illustrator 29.1.0, SVG Export Plug-In . SVG Version: 2.1.0 Build 142)  -->
  <defs>
    <style>
      .st0 {
        fill: #fff;
        stroke: #fff;
      }

      .st0, .st1 {
        stroke-miterlimit: 10;
      }

      .st1 {
        fill: #fff;
        stroke: #fff;
      }
    </style>
  </defs>
  <g id="violeta-lila">
    <path class="st0" d="M57.7,48c0-.1.2-.2.4-.2.7,0,2.3.4,2.7,1.5s-1.6,5.7-3.8,7.1c0,0-.9.9-2.2,1.3-.3,0-.7.1-1.1.1-1.5,0-3-.4-4.3-1.2s-1.2-.9-1.5-1.4c-.7-1.4-1-3.5-.1-6.5,0,0-7.5,8.3-15.2,6.9,0,0-9.9-1.7-7.4-14.4s16.7-24,22.7-27.1c2.5-1.3,7.1-2.8,10.2.4,1,1.2,1.2,1.6,1.2,2.6.2,1.9-.1,5.5-3.9,8.9-.8.7-2.1,1-3.2.5s-.8-.4-1.1-.9c0,0,3.7-3.9,4.3-7.8,0,0,.3-1.8-.1-2.5,0,0-1.3-1.9-12.9,8.4,0,0-8.6,9-10.9,16.1s-.4,10.8-.4,10.8c0,0,.2,1.2,2.8,1.2s9-2.4,14.8-7.8c.9-.8,1.4-1.6,2.1-2.8l.8-1.8s-8.5,2.3-9.6-1.3c-.3-.8.9-1.3,1.4-.6s0,.1.1.2c0,0,1.9,1.2,5.3.1,3.4-1.1,6.8-2.6,8.1-4,0,0,.5-.5.7-.7s3.3.4,3.5,1.7-3.8,5.8-3.8,5.8c0,0-4.2,5.3-5.1,9.8,0,0,0,0,0,.1,0,.5-.4,3.5-.6,5.1,0,.1.1.3.3.2,1.1-.4,4.4-2,5.9-7.8h0s0,0,0,0h0Z"/>
    <path id="p1" class="st1" d="M13.5,57.7c.3,0,.4-.4.2-.6-.5-.6-1.1-2-1.1-5.1,0-4.2,1.4-10.3,2.4-11.9,1-1.6,1.2-1,1.5-.7s.5.4.8.6c2.1,1.1,10.3,2.3,16-4.9,8.9-11.4,5.4-21-.6-25.2-5.6-4-16-3.5-23.2.9,0,0-6.5,3.7-7.1,9.3-.5,5.7,2.6,8.2,2.6,8.2l.5.5c.2.2.5,0,.5-.2.1-2,1-7.4,3.5-10.4,0,0,4.7-7.9,14.5-7.2,3.4.2,6.1,1.8,7.4,3.9,1.2,1.9,1.8,4.2,1.8,6.5,0,2.7-.8,5.9-5.2,11.4-5.8,6-9.2,5.1-9.2,5.1,0,0-2.8-.7-2.3-2.1s3.5-6.5,5.3-9.7c.8-1.4,1.8-2.7,2.8-3.9s1-1,1.1-1.2c.4-.5.1-2.3-2.1-2.7-2.2-.4-3.5.2-5.8,3.4-2.2,3.1-6.2,8.9-10.8,23.9-.5,1.6-.8,3.3-.7,5,0,2.3.6,5,2.7,6.5,0,0,1.3.9,4.3.8h0s0,0,0,0Z"/>
  </g>
</svg>